<?xml version="1.0" encoding="UTF-8" standalone="no"?>
<!-- Created with Inkscape (http://www.inkscape.org/) -->

<svg
   xmlns:dc="http://purl.org/dc/elements/1.1/"
   xmlns:cc="http://creativecommons.org/ns#"
   xmlns:rdf="http://www.w3.org/1999/02/22-rdf-syntax-ns#"
   xmlns:svg="http://www.w3.org/2000/svg"
   xmlns="http://www.w3.org/2000/svg"
   xmlns:sodipodi="http://sodipodi.sourceforge.net/DTD/sodipodi-0.dtd"
   xmlns:inkscape="http://www.inkscape.org/namespaces/inkscape"
   width="744.09448819"
   height="1052.3622047"
   id="svg2"
   version="1.1"
   inkscape:version="0.47pre4 r22446"
   sodipodi:docname="Interpolation1Plain.svg"
   inkscape:export-filename="/Users/sean/Development/stlib/doxygen/numerical/graphics/interpolation/Interpolation1Plain.png"
   inkscape:export-xdpi="90"
   inkscape:export-ydpi="90">
  <defs
     id="defs4">
    <inkscape:perspective
       sodipodi:type="inkscape:persp3d"
       inkscape:vp_x="0 : 526.18109 : 1"
       inkscape:vp_y="0 : 1000 : 0"
       inkscape:vp_z="744.09448 : 526.18109 : 1"
       inkscape:persp3d-origin="372.04724 : 350.78739 : 1"
       id="perspective10" />
  </defs>
  <sodipodi:namedview
     id="base"
     pagecolor="#ffffff"
     bordercolor="#666666"
     borderopacity="1.0"
     inkscape:pageopacity="0.0"
     inkscape:pageshadow="2"
     inkscape:zoom="2.5"
     inkscape:cx="292.27835"
     inkscape:cy="149.49862"
     inkscape:document-units="px"
     inkscape:current-layer="layer1"
     showgrid="true"
     inkscape:window-width="1907"
     inkscape:window-height="1111"
     inkscape:window-x="0"
     inkscape:window-y="0"
     inkscape:window-maximized="0"
     inkscape:snap-grids="true">
    <inkscape:grid
       type="xygrid"
       id="grid3644" />
  </sodipodi:namedview>
  <metadata
     id="metadata7">
    <rdf:RDF>
      <cc:Work
         rdf:about="">
        <dc:format>image/svg+xml</dc:format>
        <dc:type
           rdf:resource="http://purl.org/dc/dcmitype/StillImage" />
        <dc:title></dc:title>
      </cc:Work>
    </rdf:RDF>
  </metadata>
  <g
     inkscape:label="Layer 1"
     inkscape:groupmode="layer"
     id="layer1">
    <path
       style="fill:none;stroke:#000000;stroke-width:1px;stroke-linecap:butt;stroke-linejoin:miter;stroke-opacity:1"
       d="m 100,802.36218 400,0 0,150 -400,0 0,-150 z"
       id="path2820" />
    <path
       sodipodi:type="arc"
       style="fill:#00000d;fill-opacity:1;stroke:#000000;stroke-opacity:1"
       id="path3646"
       sodipodi:cx="175"
       sodipodi:cy="872.36218"
       sodipodi:rx="5"
       sodipodi:ry="5"
       d="m 180,872.36218 a 5,5 0 1 1 -10,0 5,5 0 1 1 10,0 z"
       transform="translate(-75,80)" />
    <path
       sodipodi:type="arc"
       style="fill:#00000d;fill-opacity:1;stroke:#000000;stroke-opacity:1"
       id="path3661"
       sodipodi:cx="200"
       sodipodi:cy="952.36218"
       sodipodi:rx="5"
       sodipodi:ry="5"
       d="m 205,952.36218 a 5,5 0 1 1 -10,0 5,5 0 1 1 10,0 z" />
    <path
       sodipodi:type="arc"
       style="fill:#00000d;fill-opacity:1;stroke:#000000;stroke-opacity:1"
       id="path3663"
       sodipodi:cx="300"
       sodipodi:cy="952.36218"
       sodipodi:rx="5"
       sodipodi:ry="5"
       d="m 305,952.36218 a 5,5 0 1 1 -10,0 5,5 0 1 1 10,0 z" />
    <path
       sodipodi:type="arc"
       style="fill:#00000d;fill-opacity:1;stroke:#000000;stroke-opacity:1"
       id="path3665"
       sodipodi:cx="400"
       sodipodi:cy="952.36218"
       sodipodi:rx="5"
       sodipodi:ry="5"
       d="m 405,952.36218 a 5,5 0 1 1 -10,0 5,5 0 1 1 10,0 z" />
    <path
       sodipodi:type="arc"
       style="fill:#00000d;fill-opacity:1;stroke:#000000;stroke-opacity:1"
       id="path3667"
       sodipodi:cx="500"
       sodipodi:cy="952.36218"
       sodipodi:rx="5"
       sodipodi:ry="5"
       d="m 505,952.36218 a 5,5 0 1 1 -10,0 5,5 0 1 1 10,0 z" />
    <path
       sodipodi:type="arc"
       style="fill:#00000d;fill-opacity:1;stroke:#000000;stroke-opacity:1"
       id="path3703"
       sodipodi:cx="100"
       sodipodi:cy="902.36218"
       sodipodi:rx="5"
       sodipodi:ry="5"
       d="m 105,902.36218 a 5,5 0 1 1 -10,0 5,5 0 1 1 10,0 z" />
    <path
       sodipodi:type="arc"
       style="fill:#00000d;fill-opacity:1;stroke:#000000;stroke-opacity:1"
       id="path3705"
       sodipodi:cx="200"
       sodipodi:cy="902.36218"
       sodipodi:rx="5"
       sodipodi:ry="5"
       d="m 205,902.36218 a 5,5 0 1 1 -10,0 5,5 0 1 1 10,0 z" />
    <path
       sodipodi:type="arc"
       style="fill:#00000d;fill-opacity:1;stroke:#000000;stroke-opacity:1"
       id="path3707"
       sodipodi:cx="300"
       sodipodi:cy="902.36218"
       sodipodi:rx="5"
       sodipodi:ry="5"
       d="m 305,902.36218 a 5,5 0 1 1 -10,0 5,5 0 1 1 10,0 z" />
    <path
       sodipodi:type="arc"
       style="fill:#00000d;fill-opacity:1;stroke:#000000;stroke-opacity:1"
       id="path3709"
       sodipodi:cx="400"
       sodipodi:cy="902.36218"
       sodipodi:rx="5"
       sodipodi:ry="5"
       d="m 405,902.36218 a 5,5 0 1 1 -10,0 5,5 0 1 1 10,0 z" />
    <path
       sodipodi:type="arc"
       style="fill:#00000d;fill-opacity:1;stroke:#000000;stroke-opacity:1"
       id="path3711"
       sodipodi:cx="500"
       sodipodi:cy="902.36218"
       sodipodi:rx="5"
       sodipodi:ry="5"
       d="m 505,902.36218 a 5,5 0 1 1 -10,0 5,5 0 1 1 10,0 z" />
    <path
       sodipodi:type="arc"
       style="fill:#00000d;fill-opacity:1;stroke:#000000;stroke-opacity:1"
       id="path3713"
       sodipodi:cx="100"
       sodipodi:cy="852.36218"
       sodipodi:rx="5"
       sodipodi:ry="5"
       d="m 105,852.36218 a 5,5 0 1 1 -10,0 5,5 0 1 1 10,0 z" />
    <path
       sodipodi:type="arc"
       style="fill:#00000d;fill-opacity:1;stroke:#000000;stroke-opacity:1"
       id="path3715"
       sodipodi:cx="200"
       sodipodi:cy="852.36218"
       sodipodi:rx="5"
       sodipodi:ry="5"
       d="m 205,852.36218 a 5,5 0 1 1 -10,0 5,5 0 1 1 10,0 z" />
    <path
       sodipodi:type="arc"
       style="fill:#00000d;fill-opacity:1;stroke:#000000;stroke-opacity:1"
       id="path3717"
       sodipodi:cx="300"
       sodipodi:cy="852.36218"
       sodipodi:rx="5"
       sodipodi:ry="5"
       d="m 305,852.36218 a 5,5 0 1 1 -10,0 5,5 0 1 1 10,0 z" />
    <path
       sodipodi:type="arc"
       style="fill:#00000d;fill-opacity:1;stroke:#000000;stroke-opacity:1"
       id="path3719"
       sodipodi:cx="400"
       sodipodi:cy="852.36218"
       sodipodi:rx="5"
       sodipodi:ry="5"
       d="m 405,852.36218 a 5,5 0 1 1 -10,0 5,5 0 1 1 10,0 z" />
    <path
       sodipodi:type="arc"
       style="fill:#00000d;fill-opacity:1;stroke:#000000;stroke-opacity:1"
       id="path3721"
       sodipodi:cx="500"
       sodipodi:cy="852.36218"
       sodipodi:rx="5"
       sodipodi:ry="5"
       d="m 505,852.36218 a 5,5 0 1 1 -10,0 5,5 0 1 1 10,0 z" />
    <path
       sodipodi:type="arc"
       style="fill:#00000d;fill-opacity:1;stroke:#000000;stroke-opacity:1"
       id="path3723"
       sodipodi:cx="100"
       sodipodi:cy="802.36218"
       sodipodi:rx="5"
       sodipodi:ry="5"
       d="m 105,802.36218 a 5,5 0 1 1 -10,0 5,5 0 1 1 10,0 z" />
    <path
       sodipodi:type="arc"
       style="fill:#00000d;fill-opacity:1;stroke:#000000;stroke-opacity:1"
       id="path3725"
       sodipodi:cx="200"
       sodipodi:cy="802.36218"
       sodipodi:rx="5"
       sodipodi:ry="5"
       d="m 205,802.36218 a 5,5 0 1 1 -10,0 5,5 0 1 1 10,0 z" />
    <path
       sodipodi:type="arc"
       style="fill:#00000d;fill-opacity:1;stroke:#000000;stroke-opacity:1"
       id="path3727"
       sodipodi:cx="300"
       sodipodi:cy="802.36218"
       sodipodi:rx="5"
       sodipodi:ry="5"
       d="m 305,802.36218 a 5,5 0 1 1 -10,0 5,5 0 1 1 10,0 z" />
    <path
       sodipodi:type="arc"
       style="fill:#00000d;fill-opacity:1;stroke:#000000;stroke-opacity:1"
       id="path3729"
       sodipodi:cx="400"
       sodipodi:cy="802.36218"
       sodipodi:rx="5"
       sodipodi:ry="5"
       d="m 405,802.36218 a 5,5 0 1 1 -10,0 5,5 0 1 1 10,0 z" />
    <path
       sodipodi:type="arc"
       style="fill:#00000d;fill-opacity:1;stroke:#000000;stroke-opacity:1"
       id="path3731"
       sodipodi:cx="500"
       sodipodi:cy="802.36218"
       sodipodi:rx="5"
       sodipodi:ry="5"
       d="m 505,802.36218 a 5,5 0 1 1 -10,0 5,5 0 1 1 10,0 z" />
    <path
       id="path3748"
       d="m 0,902.36218 600,0"
       style="fill:#00000d;fill-opacity:1;stroke:#0000ff;stroke-width:1px;stroke-linecap:butt;stroke-linejoin:miter;stroke-opacity:1" />
    <path
       style="fill:#00000d;fill-opacity:1;stroke:#0000ff;stroke-width:1px;stroke-linecap:butt;stroke-linejoin:miter;stroke-opacity:1"
       d="m 0,852.36218 600,0"
       id="path3750" />
    <path
       style="fill:none;stroke:#0000ff;stroke-width:1px;stroke-linecap:butt;stroke-linejoin:miter;stroke-opacity:1"
       d="m 200,1052.3622 0,-350.00002"
       id="path3752" />
    <path
       id="path3754"
       d="m 300,1052.3622 0,-350.00002"
       style="fill:none;stroke:#0000ff;stroke-width:1px;stroke-linecap:butt;stroke-linejoin:miter;stroke-opacity:1" />
    <path
       style="fill:none;stroke:#0000ff;stroke-width:1px;stroke-linecap:butt;stroke-linejoin:miter;stroke-opacity:1"
       d="m 400,1052.3622 0,-350.00002"
       id="path3756" />
  </g>
</svg>
