<?xml version="1.0" encoding="UTF-8" standalone="no"?>
<!-- Created with Inkscape (http://www.inkscape.org/) -->

<svg
   xmlns:dc="http://purl.org/dc/elements/1.1/"
   xmlns:cc="http://creativecommons.org/ns#"
   xmlns:rdf="http://www.w3.org/1999/02/22-rdf-syntax-ns#"
   xmlns:svg="http://www.w3.org/2000/svg"
   xmlns="http://www.w3.org/2000/svg"
   xmlns:sodipodi="http://sodipodi.sourceforge.net/DTD/sodipodi-0.dtd"
   xmlns:inkscape="http://www.inkscape.org/namespaces/inkscape"
   width="744.09448819"
   height="1052.3622047"
   id="svg2"
   version="1.1"
   inkscape:version="0.48.2 r9819"
   sodipodi:docname="bucketing.svg"
   inkscape:export-filename="/Users/sean/Development/stlib/doc/particle/graphics/bucketing.png"
   inkscape:export-xdpi="90"
   inkscape:export-ydpi="90">
  <defs
     id="defs4" />
  <sodipodi:namedview
     id="base"
     pagecolor="#ffffff"
     bordercolor="#666666"
     borderopacity="1.0"
     inkscape:pageopacity="0.0"
     inkscape:pageshadow="2"
     inkscape:zoom="3"
     inkscape:cx="143.58986"
     inkscape:cy="148.817"
     inkscape:document-units="px"
     inkscape:current-layer="layer1"
     showgrid="true"
     inkscape:snap-global="true"
     inkscape:window-width="1286"
     inkscape:window-height="1105"
     inkscape:window-x="0"
     inkscape:window-y="0"
     inkscape:window-maximized="0">
    <inkscape:grid
       type="xygrid"
       id="grid2985" />
  </sodipodi:namedview>
  <metadata
     id="metadata7">
    <rdf:RDF>
      <cc:Work
         rdf:about="">
        <dc:format>image/svg+xml</dc:format>
        <dc:type
           rdf:resource="http://purl.org/dc/dcmitype/StillImage" />
        <dc:title></dc:title>
      </cc:Work>
    </rdf:RDF>
  </metadata>
  <g
     inkscape:groupmode="layer"
     id="layer2"
     inkscape:label="InteractionBall">
    <path
       sodipodi:type="arc"
       style="fill:#00ff00;fill-opacity:1;stroke:#00ff00;stroke-width:1;stroke-miterlimit:4;stroke-opacity:1;stroke-dasharray:none;stroke-dashoffset:0"
       id="path3017"
       sodipodi:cx="100"
       sodipodi:cy="952.36218"
       sodipodi:rx="85"
       sodipodi:ry="85"
       d="m 185,952.36218 a 85,85 0 1 1 -170,0 85,85 0 1 1 170,0 z" />
  </g>
  <g
     inkscape:label="Layer 1"
     inkscape:groupmode="layer"
     id="layer1">
    <path
       style="color:#000000;fill:none;stroke:#000000;stroke-width:1;stroke-linecap:butt;stroke-linejoin:miter;stroke-miterlimit:4;stroke-opacity:1;stroke-dasharray:none;stroke-dashoffset:0;marker:none;visibility:visible;display:inline;overflow:visible;enable-background:accumulate"
       d="m 0,1052.3622 300,0 0,-300.00002 -300,0 z"
       id="path2987"
       inkscape:connector-curvature="0" />
    <path
       style="color:#000000;fill:none;stroke:#000000;stroke-width:1;stroke-linecap:butt;stroke-linejoin:miter;stroke-miterlimit:4;stroke-opacity:1;stroke-dasharray:none;stroke-dashoffset:0;marker:none;visibility:visible;display:inline;overflow:visible;enable-background:accumulate"
       d="m 100,1052.3622 0,-300.00002"
       id="path3008"
       inkscape:connector-curvature="0" />
    <path
       style="color:#000000;fill:none;stroke:#000000;stroke-width:1;stroke-linecap:butt;stroke-linejoin:miter;stroke-miterlimit:4;stroke-opacity:1;stroke-dasharray:none;stroke-dashoffset:0;marker:none;visibility:visible;display:inline;overflow:visible;enable-background:accumulate"
       d="m 200,1052.3622 0,-300.00002"
       id="path3010"
       inkscape:connector-curvature="0" />
    <path
       style="color:#000000;fill:none;stroke:#000000;stroke-width:1;stroke-linecap:butt;stroke-linejoin:miter;stroke-miterlimit:4;stroke-opacity:1;stroke-dasharray:none;stroke-dashoffset:0;marker:none;visibility:visible;display:inline;overflow:visible;enable-background:accumulate"
       d="m 0,952.36218 300,0"
       id="path3012"
       inkscape:connector-curvature="0" />
    <path
       style="color:#000000;fill:none;stroke:#000000;stroke-width:1;stroke-linecap:butt;stroke-linejoin:miter;stroke-miterlimit:4;stroke-opacity:1;stroke-dasharray:none;stroke-dashoffset:0;marker:none;visibility:visible;display:inline;overflow:visible;enable-background:accumulate"
       d="m 0,852.36218 300,0"
       id="path3014"
       inkscape:connector-curvature="0" />
    <path
       sodipodi:type="arc"
       style="fill:#000000;fill-opacity:1;stroke:#000000;stroke-width:1;stroke-miterlimit:4;stroke-opacity:1;stroke-dasharray:none;stroke-dashoffset:0"
       id="path3019"
       sodipodi:cx="105"
       sodipodi:cy="947.36218"
       sodipodi:rx="5"
       sodipodi:ry="5"
       d="m 110,947.36218 a 5,5 0 1 1 -10,0 5,5 0 1 1 10,0 z" />
    <path
       sodipodi:type="arc"
       style="fill:#000000;fill-opacity:1;stroke:#000000;stroke-width:1;stroke-miterlimit:4;stroke-opacity:1;stroke-dasharray:none;stroke-dashoffset:0"
       id="path3021"
       sodipodi:cx="120"
       sodipodi:cy="892.36218"
       sodipodi:rx="5"
       sodipodi:ry="5"
       d="m 125,892.36218 a 5,5 0 1 1 -10,0 5,5 0 1 1 10,0 z" />
    <path
       sodipodi:type="arc"
       style="fill:#000000;fill-opacity:1;stroke:#000000;stroke-width:1;stroke-miterlimit:4;stroke-opacity:1;stroke-dasharray:none;stroke-dashoffset:0"
       id="path3023"
       sodipodi:cx="160"
       sodipodi:cy="902.36218"
       sodipodi:rx="5"
       sodipodi:ry="5"
       d="m 165,902.36218 a 5,5 0 1 1 -10,0 5,5 0 1 1 10,0 z" />
    <path
       sodipodi:type="arc"
       style="fill:#000000;fill-opacity:1;stroke:#000000;stroke-width:1;stroke-miterlimit:4;stroke-opacity:1;stroke-dasharray:none;stroke-dashoffset:0"
       id="path3025"
       sodipodi:cx="180"
       sodipodi:cy="867.36218"
       sodipodi:rx="5"
       sodipodi:ry="5"
       d="m 185,867.36218 a 5,5 0 1 1 -10,0 5,5 0 1 1 10,0 z" />
    <path
       sodipodi:type="arc"
       style="fill:#000000;fill-opacity:1;stroke:#000000;stroke-width:1;stroke-miterlimit:4;stroke-opacity:1;stroke-dasharray:none;stroke-dashoffset:0"
       id="path3027"
       sodipodi:cx="185"
       sodipodi:cy="932.36218"
       sodipodi:rx="5"
       sodipodi:ry="5"
       d="m 190,932.36218 a 5,5 0 1 1 -10,0 5,5 0 1 1 10,0 z" />
    <path
       sodipodi:type="arc"
       style="fill:#000000;fill-opacity:1;stroke:#000000;stroke-width:1;stroke-miterlimit:4;stroke-opacity:1;stroke-dasharray:none;stroke-dashoffset:0"
       id="path3029"
       sodipodi:cx="220"
       sodipodi:cy="902.36218"
       sodipodi:rx="5"
       sodipodi:ry="5"
       d="m 225,902.36218 a 5,5 0 1 1 -10,0 5,5 0 1 1 10,0 z" />
    <path
       sodipodi:type="arc"
       style="fill:#000000;fill-opacity:1;stroke:#000000;stroke-width:1;stroke-miterlimit:4;stroke-opacity:1;stroke-dasharray:none;stroke-dashoffset:0"
       id="path3031"
       sodipodi:cx="240"
       sodipodi:cy="872.36218"
       sodipodi:rx="5"
       sodipodi:ry="5"
       d="m 245,872.36218 a 5,5 0 1 1 -10,0 5,5 0 1 1 10,0 z" />
    <path
       sodipodi:type="arc"
       style="fill:#000000;fill-opacity:1;stroke:#000000;stroke-width:1;stroke-miterlimit:4;stroke-opacity:1;stroke-dasharray:none;stroke-dashoffset:0"
       id="path3033"
       sodipodi:cx="265"
       sodipodi:cy="852.36218"
       sodipodi:rx="5"
       sodipodi:ry="5"
       d="m 270,852.36218 a 5,5 0 1 1 -10,0 5,5 0 1 1 10,0 z" />
    <path
       sodipodi:type="arc"
       style="fill:#000000;fill-opacity:1;stroke:#000000;stroke-width:1;stroke-miterlimit:4;stroke-opacity:1;stroke-dasharray:none;stroke-dashoffset:0"
       id="path3035"
       sodipodi:cx="285"
       sodipodi:cy="937.36218"
       sodipodi:rx="5"
       sodipodi:ry="5"
       d="m 290,937.36218 a 5,5 0 1 1 -10,0 5,5 0 1 1 10,0 z" />
    <path
       sodipodi:type="arc"
       style="fill:#000000;fill-opacity:1;stroke:#000000;stroke-width:1;stroke-miterlimit:4;stroke-opacity:1;stroke-dasharray:none;stroke-dashoffset:0"
       id="path3037"
       sodipodi:cx="240"
       sodipodi:cy="937.36218"
       sodipodi:rx="5"
       sodipodi:ry="5"
       d="m 245,937.36218 a 5,5 0 1 1 -10,0 5,5 0 1 1 10,0 z" />
    <path
       sodipodi:type="arc"
       style="fill:#000000;fill-opacity:1;stroke:#000000;stroke-width:1;stroke-miterlimit:4;stroke-opacity:1;stroke-dasharray:none;stroke-dashoffset:0"
       id="path3039"
       sodipodi:cx="55"
       sodipodi:cy="907.36218"
       sodipodi:rx="5"
       sodipodi:ry="5"
       d="m 60,907.36218 a 5,5 0 1 1 -10,0 5,5 0 1 1 10,0 z" />
    <path
       sodipodi:type="arc"
       style="fill:#000000;fill-opacity:1;stroke:#000000;stroke-width:1;stroke-miterlimit:4;stroke-opacity:1;stroke-dasharray:none;stroke-dashoffset:0"
       id="path3041"
       sodipodi:cx="20"
       sodipodi:cy="932.36218"
       sodipodi:rx="5"
       sodipodi:ry="5"
       d="m 25,932.36218 a 5,5 0 1 1 -10,0 5,5 0 1 1 10,0 z" />
    <path
       sodipodi:type="arc"
       style="fill:#000000;fill-opacity:1;stroke:#000000;stroke-width:1;stroke-miterlimit:4;stroke-opacity:1;stroke-dasharray:none;stroke-dashoffset:0"
       id="path3043"
       sodipodi:cx="150"
       sodipodi:cy="997.36218"
       sodipodi:rx="5"
       sodipodi:ry="5"
       d="m 155,997.36218 a 5,5 0 1 1 -10,0 5,5 0 1 1 10,0 z" />
    <path
       sodipodi:type="arc"
       style="fill:#000000;fill-opacity:1;stroke:#000000;stroke-width:1;stroke-miterlimit:4;stroke-opacity:1;stroke-dasharray:none;stroke-dashoffset:0"
       id="path3045"
       sodipodi:cx="115"
       sodipodi:cy="1037.3622"
       sodipodi:rx="5"
       sodipodi:ry="5"
       d="m 120,1037.3622 a 5,5 0 1 1 -10,0 5,5 0 1 1 10,0 z" />
    <path
       sodipodi:type="arc"
       style="fill:#000000;fill-opacity:1;stroke:#000000;stroke-width:1;stroke-miterlimit:4;stroke-opacity:1;stroke-dasharray:none;stroke-dashoffset:0"
       id="path3047"
       sodipodi:cx="150"
       sodipodi:cy="1037.3622"
       sodipodi:rx="5"
       sodipodi:ry="5"
       d="m 155,1037.3622 a 5,5 0 1 1 -10,0 5,5 0 1 1 10,0 z" />
    <path
       sodipodi:type="arc"
       style="fill:#000000;fill-opacity:1;stroke:#000000;stroke-width:1;stroke-miterlimit:4;stroke-opacity:1;stroke-dasharray:none;stroke-dashoffset:0"
       id="path3049"
       sodipodi:cx="80"
       sodipodi:cy="967.36218"
       sodipodi:rx="5"
       sodipodi:ry="5"
       d="m 85,967.36218 a 5,5 0 1 1 -10,0 5,5 0 1 1 10,0 z" />
    <path
       sodipodi:type="arc"
       style="fill:#000000;fill-opacity:1;stroke:#000000;stroke-width:1;stroke-miterlimit:4;stroke-opacity:1;stroke-dasharray:none;stroke-dashoffset:0"
       id="path3051"
       sodipodi:cx="25"
       sodipodi:cy="1022.3622"
       sodipodi:rx="5"
       sodipodi:ry="5"
       d="m 30,1022.3622 a 5,5 0 1 1 -10,0 5,5 0 1 1 10,0 z" />
    <path
       sodipodi:type="arc"
       style="fill:#000000;fill-opacity:1;stroke:#000000;stroke-width:1;stroke-miterlimit:4;stroke-opacity:1;stroke-dasharray:none;stroke-dashoffset:0"
       id="path3053"
       sodipodi:cx="30"
       sodipodi:cy="977.36218"
       sodipodi:rx="5"
       sodipodi:ry="5"
       d="m 35,977.36218 a 5,5 0 1 1 -10,0 5,5 0 1 1 10,0 z" />
    <path
       sodipodi:type="arc"
       style="fill:#000000;fill-opacity:1;stroke:#000000;stroke-width:1;stroke-miterlimit:4;stroke-opacity:1;stroke-dasharray:none;stroke-dashoffset:0"
       id="path3055"
       sodipodi:cx="55"
       sodipodi:cy="1002.3622"
       sodipodi:rx="5"
       sodipodi:ry="5"
       d="m 60,1002.3622 a 5,5 0 1 1 -10,0 5,5 0 1 1 10,0 z" />
    <path
       sodipodi:type="arc"
       style="fill:#000000;fill-opacity:1;stroke:#000000;stroke-width:1;stroke-miterlimit:4;stroke-opacity:1;stroke-dasharray:none;stroke-dashoffset:0"
       id="path3059"
       sodipodi:cx="75"
       sodipodi:cy="1037.3622"
       sodipodi:rx="5"
       sodipodi:ry="5"
       d="m 80,1037.3622 a 5,5 0 1 1 -10,0 5,5 0 1 1 10,0 z" />
    <path
       sodipodi:type="arc"
       style="fill:#000000;fill-opacity:1;stroke:#000000;stroke-width:1;stroke-miterlimit:4;stroke-opacity:1;stroke-dasharray:none;stroke-dashoffset:0"
       id="path3061"
       sodipodi:cx="120"
       sodipodi:cy="992.36218"
       sodipodi:rx="5"
       sodipodi:ry="5"
       d="m 125,992.36218 a 5,5 0 1 1 -10,0 5,5 0 1 1 10,0 z" />
    <path
       sodipodi:type="arc"
       style="fill:#000000;fill-opacity:1;stroke:#000000;stroke-width:1;stroke-miterlimit:4;stroke-opacity:1;stroke-dasharray:none;stroke-dashoffset:0"
       id="path3063"
       sodipodi:cx="180"
       sodipodi:cy="967.36218"
       sodipodi:rx="5"
       sodipodi:ry="5"
       d="m 185,967.36218 a 5,5 0 1 1 -10,0 5,5 0 1 1 10,0 z" />
    <path
       sodipodi:type="arc"
       style="fill:#000000;fill-opacity:1;stroke:#000000;stroke-width:1;stroke-miterlimit:4;stroke-opacity:1;stroke-dasharray:none;stroke-dashoffset:0"
       id="path3065"
       sodipodi:cx="185"
       sodipodi:cy="1017.3622"
       sodipodi:rx="5"
       sodipodi:ry="5"
       d="m 190,1017.3622 a 5,5 0 1 1 -10,0 5,5 0 1 1 10,0 z" />
    <path
       sodipodi:type="arc"
       style="fill:#000000;fill-opacity:1;stroke:#000000;stroke-width:1;stroke-miterlimit:4;stroke-opacity:1;stroke-dasharray:none;stroke-dashoffset:0"
       id="path3067"
       sodipodi:cx="200"
       sodipodi:cy="987.36218"
       sodipodi:rx="5"
       sodipodi:ry="5"
       d="m 205,987.36218 a 5,5 0 1 1 -10,0 5,5 0 1 1 10,0 z" />
    <path
       sodipodi:type="arc"
       style="fill:#000000;fill-opacity:1;stroke:#000000;stroke-width:1;stroke-miterlimit:4;stroke-opacity:1;stroke-dasharray:none;stroke-dashoffset:0"
       id="path3069"
       sodipodi:cx="240"
       sodipodi:cy="987.36218"
       sodipodi:rx="5"
       sodipodi:ry="5"
       d="m 245,987.36218 a 5,5 0 1 1 -10,0 5,5 0 1 1 10,0 z" />
    <path
       sodipodi:type="arc"
       style="fill:#000000;fill-opacity:1;stroke:#000000;stroke-width:1;stroke-miterlimit:4;stroke-opacity:1;stroke-dasharray:none;stroke-dashoffset:0"
       id="path3071"
       sodipodi:cx="225"
       sodipodi:cy="1032.3622"
       sodipodi:rx="5"
       sodipodi:ry="5"
       d="m 230,1032.3622 a 5,5 0 1 1 -10,0 5,5 0 1 1 10,0 z" />
    <path
       sodipodi:type="arc"
       style="fill:#000000;fill-opacity:1;stroke:#000000;stroke-width:1;stroke-miterlimit:4;stroke-opacity:1;stroke-dasharray:none;stroke-dashoffset:0"
       id="path3073"
       sodipodi:cx="250"
       sodipodi:cy="1017.3622"
       sodipodi:rx="5"
       sodipodi:ry="5"
       d="m 255,1017.3622 a 5,5 0 1 1 -10,0 5,5 0 1 1 10,0 z" />
    <path
       sodipodi:type="arc"
       style="fill:#000000;fill-opacity:1;stroke:#000000;stroke-width:1;stroke-miterlimit:4;stroke-opacity:1;stroke-dasharray:none;stroke-dashoffset:0"
       id="path3075"
       sodipodi:cx="290"
       sodipodi:cy="967.36218"
       sodipodi:rx="5"
       sodipodi:ry="5"
       d="m 295,967.36218 a 5,5 0 1 1 -10,0 5,5 0 1 1 10,0 z" />
    <path
       sodipodi:type="arc"
       style="fill:#000000;fill-opacity:1;stroke:#000000;stroke-width:1;stroke-miterlimit:4;stroke-opacity:1;stroke-dasharray:none;stroke-dashoffset:0"
       id="path3077"
       sodipodi:cx="280"
       sodipodi:cy="1037.3622"
       sodipodi:rx="5"
       sodipodi:ry="5"
       d="m 285,1037.3622 a 5,5 0 1 1 -10,0 5,5 0 1 1 10,0 z" />
    <path
       sodipodi:type="arc"
       style="fill:#000000;fill-opacity:1;stroke:#000000;stroke-width:1;stroke-miterlimit:4;stroke-opacity:1;stroke-dasharray:none;stroke-dashoffset:0"
       id="path3079"
       sodipodi:cx="25"
       sodipodi:cy="857.36218"
       sodipodi:rx="5"
       sodipodi:ry="5"
       d="m 30,857.36218 a 5,5 0 1 1 -10,0 5,5 0 1 1 10,0 z" />
    <path
       sodipodi:type="arc"
       style="fill:#000000;fill-opacity:1;stroke:#000000;stroke-width:1;stroke-miterlimit:4;stroke-opacity:1;stroke-dasharray:none;stroke-dashoffset:0"
       id="path3081"
       sodipodi:cx="60"
       sodipodi:cy="867.36218"
       sodipodi:rx="5"
       sodipodi:ry="5"
       d="m 65,867.36218 a 5,5 0 1 1 -10,0 5,5 0 1 1 10,0 z" />
    <path
       sodipodi:type="arc"
       style="fill:#000000;fill-opacity:1;stroke:#000000;stroke-width:1;stroke-miterlimit:4;stroke-opacity:1;stroke-dasharray:none;stroke-dashoffset:0"
       id="path3083"
       sodipodi:cx="100"
       sodipodi:cy="867.36218"
       sodipodi:rx="5"
       sodipodi:ry="5"
       d="m 105,867.36218 a 5,5 0 1 1 -10,0 5,5 0 1 1 10,0 z" />
    <path
       sodipodi:type="arc"
       style="fill:#000000;fill-opacity:1;stroke:#000000;stroke-width:1;stroke-miterlimit:4;stroke-opacity:1;stroke-dasharray:none;stroke-dashoffset:0"
       id="path3085"
       sodipodi:cx="50"
       sodipodi:cy="827.36218"
       sodipodi:rx="5"
       sodipodi:ry="5"
       d="m 55,827.36218 a 5,5 0 1 1 -10,0 5,5 0 1 1 10,0 z" />
    <path
       sodipodi:type="arc"
       style="fill:#000000;fill-opacity:1;stroke:#000000;stroke-width:1;stroke-miterlimit:4;stroke-opacity:1;stroke-dasharray:none;stroke-dashoffset:0"
       id="path3087"
       sodipodi:cx="5"
       sodipodi:cy="812.36218"
       sodipodi:rx="5"
       sodipodi:ry="5"
       d="m 10,812.36218 a 5,5 0 1 1 -10,0 5,5 0 1 1 10,0 z" />
    <path
       sodipodi:type="arc"
       style="fill:#000000;fill-opacity:1;stroke:#000000;stroke-width:1;stroke-miterlimit:4;stroke-opacity:1;stroke-dasharray:none;stroke-dashoffset:0"
       id="path3089"
       sodipodi:cx="25"
       sodipodi:cy="772.36218"
       sodipodi:rx="5"
       sodipodi:ry="5"
       d="m 30,772.36218 a 5,5 0 1 1 -10,0 5,5 0 1 1 10,0 z" />
    <path
       sodipodi:type="arc"
       style="fill:#000000;fill-opacity:1;stroke:#000000;stroke-width:1;stroke-miterlimit:4;stroke-opacity:1;stroke-dasharray:none;stroke-dashoffset:0"
       id="path3091"
       sodipodi:cx="65"
       sodipodi:cy="777.36218"
       sodipodi:rx="5"
       sodipodi:ry="5"
       d="m 70,777.36218 a 5,5 0 1 1 -10,0 5,5 0 1 1 10,0 z" />
    <path
       sodipodi:type="arc"
       style="fill:#000000;fill-opacity:1;stroke:#000000;stroke-width:1;stroke-miterlimit:4;stroke-opacity:1;stroke-dasharray:none;stroke-dashoffset:0"
       id="path3093"
       sodipodi:cx="85"
       sodipodi:cy="807.36218"
       sodipodi:rx="5"
       sodipodi:ry="5"
       d="m 90,807.36218 a 5,5 0 1 1 -10,0 5,5 0 1 1 10,0 z" />
    <path
       sodipodi:type="arc"
       style="fill:#000000;fill-opacity:1;stroke:#000000;stroke-width:1;stroke-miterlimit:4;stroke-opacity:1;stroke-dasharray:none;stroke-dashoffset:0"
       id="path3095"
       sodipodi:cx="105"
       sodipodi:cy="767.36218"
       sodipodi:rx="5"
       sodipodi:ry="5"
       d="m 110,767.36218 a 5,5 0 1 1 -10,0 5,5 0 1 1 10,0 z" />
    <path
       sodipodi:type="arc"
       style="fill:#000000;fill-opacity:1;stroke:#000000;stroke-width:1;stroke-miterlimit:4;stroke-opacity:1;stroke-dasharray:none;stroke-dashoffset:0"
       id="path3099"
       sodipodi:cx="125"
       sodipodi:cy="792.36218"
       sodipodi:rx="5"
       sodipodi:ry="5"
       d="m 130,792.36218 a 5,5 0 1 1 -10,0 5,5 0 1 1 10,0 z" />
    <path
       sodipodi:type="arc"
       style="fill:#000000;fill-opacity:1;stroke:#000000;stroke-width:1;stroke-miterlimit:4;stroke-opacity:1;stroke-dasharray:none;stroke-dashoffset:0"
       id="path3101"
       sodipodi:cx="115"
       sodipodi:cy="832.36218"
       sodipodi:rx="5"
       sodipodi:ry="5"
       d="m 120,832.36218 a 5,5 0 1 1 -10,0 5,5 0 1 1 10,0 z" />
    <path
       sodipodi:type="arc"
       style="fill:#000000;fill-opacity:1;stroke:#000000;stroke-width:1;stroke-miterlimit:4;stroke-opacity:1;stroke-dasharray:none;stroke-dashoffset:0"
       id="path3103"
       sodipodi:cx="160"
       sodipodi:cy="827.36218"
       sodipodi:rx="5"
       sodipodi:ry="5"
       d="m 165,827.36218 a 5,5 0 1 1 -10,0 5,5 0 1 1 10,0 z" />
    <path
       sodipodi:type="arc"
       style="fill:#000000;fill-opacity:1;stroke:#000000;stroke-width:1;stroke-miterlimit:4;stroke-opacity:1;stroke-dasharray:none;stroke-dashoffset:0"
       id="path3105"
       sodipodi:cx="180"
       sodipodi:cy="762.36218"
       sodipodi:rx="5"
       sodipodi:ry="5"
       d="m 185,762.36218 a 5,5 0 1 1 -10,0 5,5 0 1 1 10,0 z" />
    <path
       sodipodi:type="arc"
       style="fill:#000000;fill-opacity:1;stroke:#000000;stroke-width:1;stroke-miterlimit:4;stroke-opacity:1;stroke-dasharray:none;stroke-dashoffset:0"
       id="path3107"
       sodipodi:cx="280"
       sodipodi:cy="757.36218"
       sodipodi:rx="5"
       sodipodi:ry="5"
       d="m 285,757.36218 a 5,5 0 1 1 -10,0 5,5 0 1 1 10,0 z" />
    <path
       sodipodi:type="arc"
       style="fill:#000000;fill-opacity:1;stroke:#000000;stroke-width:1;stroke-miterlimit:4;stroke-opacity:1;stroke-dasharray:none;stroke-dashoffset:0"
       id="path3109"
       sodipodi:cx="240"
       sodipodi:cy="787.36218"
       sodipodi:rx="5"
       sodipodi:ry="5"
       d="m 245,787.36218 a 5,5 0 1 1 -10,0 5,5 0 1 1 10,0 z" />
    <path
       sodipodi:type="arc"
       style="fill:#000000;fill-opacity:1;stroke:#000000;stroke-width:1;stroke-miterlimit:4;stroke-opacity:1;stroke-dasharray:none;stroke-dashoffset:0"
       id="path3111"
       sodipodi:cx="280"
       sodipodi:cy="812.36218"
       sodipodi:rx="5"
       sodipodi:ry="5"
       d="m 285,812.36218 a 5,5 0 1 1 -10,0 5,5 0 1 1 10,0 z" />
    <path
       sodipodi:type="arc"
       style="fill:#000000;fill-opacity:1;stroke:#000000;stroke-width:1;stroke-miterlimit:4;stroke-opacity:1;stroke-dasharray:none;stroke-dashoffset:0"
       id="path3113"
       sodipodi:cx="230"
       sodipodi:cy="827.36218"
       sodipodi:rx="5"
       sodipodi:ry="5"
       d="m 235,827.36218 a 5,5 0 1 1 -10,0 5,5 0 1 1 10,0 z" />
    <path
       sodipodi:type="arc"
       style="fill:#000000;fill-opacity:1;stroke:#000000;stroke-width:1;stroke-miterlimit:4;stroke-opacity:1;stroke-dasharray:none;stroke-dashoffset:0"
       id="path3115"
       sodipodi:cx="195"
       sodipodi:cy="792.36218"
       sodipodi:rx="5"
       sodipodi:ry="5"
       d="m 200,792.36218 a 5,5 0 1 1 -10,0 5,5 0 1 1 10,0 z" />
    <path
       sodipodi:type="arc"
       style="fill:#000000;fill-opacity:1;stroke:#000000;stroke-width:1;stroke-miterlimit:4;stroke-opacity:1;stroke-dasharray:none;stroke-dashoffset:0"
       id="path3119"
       sodipodi:cx="275"
       sodipodi:cy="892.36218"
       sodipodi:rx="5"
       sodipodi:ry="5"
       d="m 280,892.36218 a 5,5 0 1 1 -10,0 5,5 0 1 1 10,0 z" />
    <path
       style="color:#000000;fill:none;stroke:#000000;stroke-width:1;stroke-linecap:butt;stroke-linejoin:miter;stroke-miterlimit:4;stroke-opacity:1;stroke-dasharray:none;stroke-dashoffset:0;marker:none;visibility:visible;display:inline;overflow:visible;enable-background:accumulate"
       d="m 105,947.36218 50,-60"
       id="path3121"
       inkscape:connector-curvature="0" />
    <path
       style="color:#000000;fill:none;stroke:#000000;stroke-width:1;stroke-linecap:butt;stroke-linejoin:miter;stroke-miterlimit:4;stroke-opacity:1;stroke-dasharray:none;stroke-dashoffset:0;marker:none;visibility:visible;display:inline;overflow:visible;enable-background:accumulate"
       d="m 145,887.36218 10,0 0,10"
       id="path3123"
       inkscape:connector-curvature="0" />
  </g>
</svg>
