<?xml version="1.0" encoding="UTF-8" standalone="no"?>
<!-- Created with Inkscape (http://www.inkscape.org/) -->

<svg
   xmlns:dc="http://purl.org/dc/elements/1.1/"
   xmlns:cc="http://creativecommons.org/ns#"
   xmlns:rdf="http://www.w3.org/1999/02/22-rdf-syntax-ns#"
   xmlns:svg="http://www.w3.org/2000/svg"
   xmlns="http://www.w3.org/2000/svg"
   xmlns:sodipodi="http://sodipodi.sourceforge.net/DTD/sodipodi-0.dtd"
   xmlns:inkscape="http://www.inkscape.org/namespaces/inkscape"
   width="744.09448819"
   height="1052.3622047"
   id="svg2"
   version="1.1"
   inkscape:version="0.48.2 r9819"
   sodipodi:docname="particlesMorton.svg"
   inkscape:export-filename="/Users/sean/Development/stlib/doc/particle/graphics/particlesMorton.png"
   inkscape:export-xdpi="90"
   inkscape:export-ydpi="90">
  <defs
     id="defs4" />
  <sodipodi:namedview
     id="base"
     pagecolor="#ffffff"
     bordercolor="#666666"
     borderopacity="1.0"
     inkscape:pageopacity="0.0"
     inkscape:pageshadow="2"
     inkscape:zoom="2"
     inkscape:cx="184.37358"
     inkscape:cy="185.39041"
     inkscape:document-units="px"
     inkscape:current-layer="layer1"
     showgrid="true"
     inkscape:window-width="1119"
     inkscape:window-height="1072"
     inkscape:window-x="428"
     inkscape:window-y="0"
     inkscape:window-maximized="0"
     inkscape:snap-grids="true"
     inkscape:snap-to-guides="false">
    <inkscape:grid
       type="xygrid"
       id="grid3970" />
  </sodipodi:namedview>
  <metadata
     id="metadata7">
    <rdf:RDF>
      <cc:Work
         rdf:about="">
        <dc:format>image/svg+xml</dc:format>
        <dc:type
           rdf:resource="http://purl.org/dc/dcmitype/StillImage" />
        <dc:title />
      </cc:Work>
    </rdf:RDF>
  </metadata>
  <g
     inkscape:label="Layer 1"
     inkscape:groupmode="layer"
     id="layer1">
    <path
       style="fill:none;stroke:#000000;stroke-width:1px;stroke-linecap:butt;stroke-linejoin:miter;stroke-opacity:1"
       d="m 0,1052.3622 400.5,0 0,-400.00002 -400.5,0 z"
       id="path2989"
       inkscape:connector-curvature="0"
       inkscape:export-filename="/Users/sean/Development/stlib/doc/particle/graphics/particlesMorton.png"
       inkscape:export-xdpi="90"
       inkscape:export-ydpi="90" />
    <path
       style="fill:none;stroke:#000000;stroke-width:1px;stroke-linecap:butt;stroke-linejoin:miter;stroke-opacity:1"
       d="m 0,952.36218 400,0"
       id="path3010"
       inkscape:connector-curvature="0" />
    <path
       style="fill:none;stroke:#000000;stroke-width:1px;stroke-linecap:butt;stroke-linejoin:miter;stroke-opacity:1"
       d="m 0,852.36218 400,0"
       id="path3012"
       inkscape:connector-curvature="0" />
    <path
       style="fill:none;stroke:#000000;stroke-width:1px;stroke-linecap:butt;stroke-linejoin:miter;stroke-opacity:1"
       d="m 0,752.36218 400,0"
       id="path3014"
       inkscape:connector-curvature="0" />
    <path
       style="fill:none;stroke:#000000;stroke-width:1px;stroke-linecap:butt;stroke-linejoin:miter;stroke-opacity:1"
       d="m 100,1052.3622 0,-400.00002"
       id="path3016"
       inkscape:connector-curvature="0" />
    <path
       style="fill:none;stroke:#000000;stroke-width:1px;stroke-linecap:butt;stroke-linejoin:miter;stroke-opacity:1"
       d="m 200,1052.3622 0,-400.50002"
       id="path3018"
       inkscape:connector-curvature="0" />
    <path
       style="fill:none;stroke:#000000;stroke-width:1px;stroke-linecap:butt;stroke-linejoin:miter;stroke-opacity:1"
       d="m 300,1052.3622 0,-400.00002"
       id="path3020"
       inkscape:connector-curvature="0" />
    <path
       sodipodi:type="arc"
       style="fill:#ff0000;fill-opacity:1;stroke:none"
       id="path3974"
       sodipodi:cx="35"
       sodipodi:cy="977.36218"
       sodipodi:rx="10"
       sodipodi:ry="10"
       d="m 45,977.36218 a 10,10 0 1 1 -20,0 10,10 0 1 1 20,0 z"
       transform="translate(-5,40)" />
    <path
       sodipodi:type="arc"
       style="fill:#ff6000;fill-opacity:1;stroke:none"
       id="path3976"
       sodipodi:cx="145"
       sodipodi:cy="967.36218"
       sodipodi:rx="10"
       sodipodi:ry="10"
       d="m 155,967.36218 a 10,10 0 1 1 -20,0 10,10 0 1 1 20,0 z"
       transform="translate(-30,0)" />
    <path
       sodipodi:type="arc"
       style="fill:#ffc000;fill-opacity:1;stroke:none"
       id="path3978"
       sodipodi:cx="65"
       sodipodi:cy="892.36218"
       sodipodi:rx="10"
       sodipodi:ry="10"
       d="m 75,892.36218 a 10,10 0 1 1 -20,0 10,10 0 1 1 20,0 z"
       transform="translate(5,-25)" />
    <path
       sodipodi:type="arc"
       style="fill:#deff00;fill-opacity:1;stroke:none"
       id="path3980"
       sodipodi:cx="145"
       sodipodi:cy="892.36218"
       sodipodi:rx="10"
       sodipodi:ry="10"
       d="m 155,892.36218 a 10,10 0 1 1 -20,0 10,10 0 1 1 20,0 z"
       transform="translate(-15,30)" />
    <path
       sodipodi:type="arc"
       style="fill:#7eff00;fill-opacity:1;stroke:none"
       id="path3982"
       sodipodi:cx="245"
       sodipodi:cy="992.36218"
       sodipodi:rx="10"
       sodipodi:ry="10"
       d="m 255,992.36218 a 10,10 0 1 1 -20,0 10,10 0 1 1 20,0 z"
       transform="translate(40,-5)" />
    <path
       sodipodi:type="arc"
       style="fill:#1eff00;fill-opacity:1;stroke:none"
       id="path3984"
       sodipodi:cx="355"
       sodipodi:cy="997.36218"
       sodipodi:rx="10"
       sodipodi:ry="10"
       d="m 365,997.36218 a 10,10 0 1 1 -20,0 10,10 0 1 1 20,0 z"
       transform="translate(15,40)" />
    <path
       sodipodi:type="arc"
       style="fill:#00ff42;fill-opacity:1;stroke:none"
       id="path3986"
       sodipodi:cx="250"
       sodipodi:cy="897.36218"
       sodipodi:rx="10"
       sodipodi:ry="10"
       d="m 260,897.36218 a 10,10 0 1 1 -20,0 10,10 0 1 1 20,0 z"
       transform="translate(-35,40)" />
    <path
       sodipodi:type="arc"
       style="fill:#00ffa2;fill-opacity:1;stroke:none"
       id="path3988"
       sodipodi:cx="340"
       sodipodi:cy="897.36218"
       sodipodi:rx="10"
       sodipodi:ry="10"
       d="m 350,897.36218 a 10,10 0 1 1 -20,0 10,10 0 1 1 20,0 z"
       transform="translate(45,-5)" />
    <path
       sodipodi:type="arc"
       style="fill:#00fcff;fill-opacity:1;stroke:none"
       id="path3990"
       sodipodi:cx="30"
       sodipodi:cy="817.36218"
       sodipodi:rx="10"
       sodipodi:ry="10"
       d="m 40,817.36218 a 10,10 0 1 1 -20,0 10,10 0 1 1 20,0 z"
       transform="translate(55,-50)" />
    <path
       sodipodi:type="arc"
       style="fill:#009cff;fill-opacity:1;stroke:none"
       id="path3992"
       sodipodi:cx="140"
       sodipodi:cy="802.36218"
       sodipodi:rx="10"
       sodipodi:ry="10"
       d="m 150,802.36218 a 10,10 0 1 1 -20,0 10,10 0 1 1 20,0 z"
       transform="translate(25,30)" />
    <path
       sodipodi:type="arc"
       style="fill:#003cff;fill-opacity:1;stroke:none"
       id="path3994"
       sodipodi:cx="40"
       sodipodi:cy="707.36218"
       sodipodi:rx="10"
       sodipodi:ry="10"
       d="m 50,707.36218 a 10,10 0 1 1 -20,0 10,10 0 1 1 20,0 z"
       transform="translate(45,20)" />
    <path
       sodipodi:type="arc"
       style="fill:#2400ff;fill-opacity:1;stroke:none"
       id="path3996"
       sodipodi:cx="150"
       sodipodi:cy="712.36218"
       sodipodi:rx="10"
       sodipodi:ry="10"
       d="m 160,712.36218 a 10,10 0 1 1 -20,0 10,10 0 1 1 20,0 z"
       transform="translate(-35,-25)" />
    <path
       sodipodi:type="arc"
       style="fill:#8400ff;fill-opacity:1;stroke:none"
       id="path3998"
       sodipodi:cx="250"
       sodipodi:cy="822.36218"
       sodipodi:rx="10"
       sodipodi:ry="10"
       d="m 260,822.36218 a 10,10 0 1 1 -20,0 10,10 0 1 1 20,0 z"
       transform="translate(-20,-40)" />
    <path
       sodipodi:type="arc"
       style="fill:#e400ff;fill-opacity:1;stroke:none"
       id="path4000"
       sodipodi:cx="360"
       sodipodi:cy="812.36218"
       sodipodi:rx="10"
       sodipodi:ry="10"
       d="m 370,812.36218 a 10,10 0 1 1 -20,0 10,10 0 1 1 20,0 z"
       transform="translate(-45,0)" />
    <path
       sodipodi:type="arc"
       style="fill:#ff00ba;fill-opacity:1;stroke:none"
       id="path4002"
       sodipodi:cx="245"
       sodipodi:cy="702.36218"
       sodipodi:rx="10"
       sodipodi:ry="10"
       d="m 255,702.36218 a 10,10 0 1 1 -20,0 10,10 0 1 1 20,0 z"
       transform="translate(25,35)" />
    <path
       sodipodi:type="arc"
       style="fill:#ff005a;fill-opacity:1;stroke:none"
       id="path4004"
       sodipodi:cx="345"
       sodipodi:cy="712.36218"
       sodipodi:rx="10"
       sodipodi:ry="10"
       d="m 355,712.36218 a 10,10 0 1 1 -20,0 10,10 0 1 1 20,0 z"
       transform="translate(-15,-45)" />
    <rect
       style="fill:#ff0000;fill-opacity:1;stroke:#000000;stroke-opacity:1"
       id="rect4006"
       width="25"
       height="50"
       x="0"
       y="1102.3622" />
    <rect
       style="fill:#ff6000;fill-opacity:1;stroke:#000000;stroke-opacity:1"
       id="rect4008"
       width="25"
       height="50"
       x="25"
       y="1102.3622" />
    <rect
       style="fill:#ffc000;fill-opacity:1;stroke:#000000;stroke-opacity:1"
       id="rect4010"
       width="25"
       height="50"
       x="50"
       y="1102.3622" />
    <rect
       style="fill:#deff00;fill-opacity:1;stroke:#000000;stroke-opacity:1"
       id="rect4012"
       width="25"
       height="50"
       x="75"
       y="1102.3622" />
    <rect
       style="fill:#7eff00;fill-opacity:1;stroke:#000000;stroke-opacity:1"
       id="rect4014"
       width="25"
       height="50"
       x="100"
       y="1102.3622" />
    <rect
       style="fill:#1eff00;fill-opacity:1;stroke:#000000;stroke-opacity:1"
       id="rect4016"
       width="25"
       height="50"
       x="125"
       y="1102.3622" />
    <rect
       style="fill:#00ff42;fill-opacity:1;stroke:#000000;stroke-opacity:1"
       id="rect4018"
       width="25"
       height="50"
       x="150"
       y="1102.3622" />
    <rect
       style="fill:#00ffa2;fill-opacity:1;stroke:#000000;stroke-opacity:1"
       id="rect4020"
       width="25"
       height="50"
       x="175"
       y="1102.3622" />
    <rect
       style="fill:#00fcff;fill-opacity:1;stroke:#000000;stroke-opacity:1"
       id="rect4022"
       width="25"
       height="50"
       x="200"
       y="1102.3622" />
    <rect
       style="fill:#009cff;fill-opacity:1;stroke:#000000;stroke-opacity:1"
       id="rect4024"
       width="25"
       height="50"
       x="225"
       y="1102.3622" />
    <rect
       style="fill:#003cff;fill-opacity:1;stroke:#000000;stroke-opacity:1"
       id="rect4026"
       width="25"
       height="50"
       x="250"
       y="1102.3622" />
    <rect
       style="fill:#2400ff;fill-opacity:1;stroke:#000000;stroke-opacity:1"
       id="rect4028"
       width="25"
       height="50"
       x="275"
       y="1102.3622" />
    <rect
       style="fill:#8400ff;fill-opacity:1;stroke:#000000;stroke-opacity:1"
       id="rect4030"
       width="25"
       height="50"
       x="300"
       y="1102.3622" />
    <rect
       style="fill:#e400ff;fill-opacity:1;stroke:#000000;stroke-opacity:1"
       id="rect4032"
       width="25"
       height="50"
       x="325"
       y="1102.3622" />
    <rect
       style="fill:#ff00ba;fill-opacity:1;stroke:#000000;stroke-opacity:1"
       id="rect4034"
       width="25"
       height="50"
       x="350"
       y="1102.3622" />
    <rect
       style="fill:#ff005a;fill-opacity:1;stroke:#000000;stroke-opacity:1"
       id="rect4036"
       width="25"
       height="50"
       x="375"
       y="1102.3622" />
    <path
       style="fill:none;stroke:#000000;stroke-width:2;stroke-linecap:butt;stroke-linejoin:miter;stroke-opacity:1;stroke-miterlimit:4;stroke-dasharray:none"
       d="m 50,1002.3622 100,0 -100,-100.00002 100,0 100,100.00002 100,0 -100,-100.00002 100,0 -300,-100 100,0 -100,-100 100,0 100,100 100,0 -100,-100 100,0"
       id="path3110"
       inkscape:connector-curvature="0" />
  </g>
</svg>
